<svg width="128" height="128" viewBox="0 0 128 128" xmlns="http://www.w3.org/2000/svg">
  <defs>
    <linearGradient id="burritoGreen" x1="0" y1="0" x2="1" y2="1">
      <stop offset="0%" stop-color="#52c41a" />
      <stop offset="100%" stop-color="#8bff5e" />
    </linearGradient>
  </defs>
  <rect width="128" height="128" rx="28" fill="#0c1411" />
  <rect x="10" y="10" width="108" height="108" rx="24" fill="url(#burritoGreen)" />
  <path
    d="M48 34h28c11 0 20 7 20 18 0 7-3 12-8 15 6 3 10 9 10 17 0 13-10 22-24 22H48V34zm16 18v12h10c4 0 6-2 6-6s-2-6-6-6H64zm0 26v14h12c5 0 8-3 8-7s-3-7-8-7H64z"
    fill="#0c1411"
  />
</svg>
