<svg xmlns="http://www.w3.org/2000/svg" viewBox="0 0 183.45 158.623" role="img" aria-labelledby="title">
  <title id="title">Juris Protocol</title>
  <path fill="#fff" d="M170.332 56.6367C158.627 76.9936 136.427 115.289 124.419 135.948H58.93L26.236 79.3115 59.0309 22.6748h52.3711L124.52 0H45.9129L0 79.3115c11.0998 19.2484 34.6113 59.8615 45.812 79.3115h91.725l45.913-79.3115-13.118-22.6748Z"/>
  <path fill="#fff" d="M85.166 90.5986c-1.6145-2.8218-4.9444-8.4653-6.5589-11.287 4.8435-8.4653 14.7325-25.4966 19.6769-33.9619H72.0481L52.3711 79.3116l19.677 33.9614h39.2529c14.228-24.69 31.584-54.6207 45.913-79.3111l-13.118-22.6748c-14.43 24.9927-31.483 54.4196-45.9129 79.3115H85.166Z"/>
</svg>
